<?xml version="1.0" encoding="UTF-8" standalone="no"?>
<!-- Created with Inkscape (http://www.inkscape.org/) -->

<svg
   xmlns:dc="http://purl.org/dc/elements/1.1/"
   xmlns:cc="http://creativecommons.org/ns#"
   xmlns:rdf="http://www.w3.org/1999/02/22-rdf-syntax-ns#"
   xmlns:svg="http://www.w3.org/2000/svg"
   xmlns="http://www.w3.org/2000/svg"
   xmlns:sodipodi="http://sodipodi.sourceforge.net/DTD/sodipodi-0.dtd"
   xmlns:inkscape="http://www.inkscape.org/namespaces/inkscape"
   sodipodi:docname="coil-spring.svg"
   width="370"
   height="300"
   id="svg3885"
   version="1.1"
   inkscape:version="0.91 r13725"
   inkscape:export-filename="C:\git_repos\PolyDigit\UI\icons\reverb_spring.png"
   inkscape:export-xdpi="90"
   inkscape:export-ydpi="90">
  <sodipodi:namedview
     id="base"
     pagecolor="#838383"
     bordercolor="#ffffff"
     borderopacity="1"
     inkscape:pageopacity="0"
     inkscape:pageshadow="2"
     inkscape:zoom="1.249222"
     inkscape:cx="181.8582"
     inkscape:cy="144.26484"
     inkscape:document-units="px"
     inkscape:current-layer="layer1"
     showgrid="false"
     inkscape:window-width="2560"
     inkscape:window-height="1577"
     inkscape:window-x="-8"
     inkscape:window-y="-8"
     inkscape:window-maximized="1"
     fit-margin-top="0"
     fit-margin-left="0"
     fit-margin-right="0"
     fit-margin-bottom="0"
     borderlayer="true"
     inkscape:showpageshadow="false"
     inkscape:object-nodes="true" />
  <defs
     id="defs3887" />
  <metadata
     id="metadata3890">
    <rdf:RDF>
      <cc:Work
         rdf:about="">
        <dc:format>image/svg+xml</dc:format>
        <dc:type
           rdf:resource="http://purl.org/dc/dcmitype/StillImage" />
        <dc:title></dc:title>
      </cc:Work>
    </rdf:RDF>
  </metadata>
  <g
     transform="translate(-1081.7594,-819.09758)"
     inkscape:label="1. réteg"
     inkscape:groupmode="layer"
     id="layer1">
    <path
       inkscape:connector-curvature="0"
       style="color:#000000;display:inline;overflow:visible;visibility:visible;fill:none;stroke:#6affcd;stroke-width:1.57435918;stroke-linecap:round;stroke-linejoin:round;stroke-miterlimit:4;stroke-dasharray:none;stroke-opacity:1;marker:none;enable-background:accumulate"
       d="m 1266.4771,1054.9205 c 32.0889,-0.6519 64.1339,0.4433 91.928,3.0563 27.794,2.6128 51.2442,6.7402 67.2959,11.746 16.0517,5.0059 24.6236,10.881 24.6321,16.7633 0.01,5.8823 -8.5949,11.7556 -24.6321,16.763 -16.0371,5.0076 -39.5103,9.1304 -67.2959,11.7462 -27.7857,2.6158 -59.8391,3.7082 -91.928,3.0563 -32.0889,-0.6518 -64.134,-3.0578 -91.928,-6.9778 -27.794,-3.92 -51.2442,-9.3546 -67.2959,-15.6677 -16.0518,-6.3129 -24.6237,-13.4952 -24.632,-20.6846 -0.01,-7.1896 8.5947,-14.3701 24.632,-20.6848 16.0371,-6.3147 39.5103,-11.7446 67.2959,-15.6676 27.7856,-3.9231 59.8391,-6.3225 91.928,-6.9778 32.0889,-0.6553 64.1339,0.4434 91.928,3.0563 27.794,2.6128 51.2442,6.7403 67.2959,11.746 16.0517,5.0058 24.6236,10.8809 24.6321,16.7632 0.01,5.8824 -8.5949,11.7556 -24.6321,16.7632 -16.0371,5.0075 -39.5103,9.1303 -67.2959,11.7461 -27.7857,2.6158 -59.8391,3.7082 -91.928,3.0563 -32.0889,-0.6518 -64.134,-3.0578 -91.928,-6.9779 -27.794,-3.9199 -51.2442,-9.3546 -67.2959,-15.6675 -16.0518,-6.3131 -24.6237,-13.4953 -24.632,-20.6847 -0.01,-7.1895 8.5947,-14.3701 24.632,-20.6848 16.0371,-6.3146 39.5103,-11.7446 67.2959,-15.6676 27.7856,-3.923 59.8391,-6.3225 91.928,-6.9779 32.0889,-0.6552 64.1339,0.4435 91.928,3.0564 27.794,2.6128 51.2442,6.7403 67.2959,11.7461 16.0517,5.0058 24.6236,10.8809 24.6321,16.7632 0.01,5.8823 -8.5949,11.7556 -24.6321,16.7631 -16.0371,5.0075 -39.5103,9.1303 -67.2959,11.7462 -27.7857,2.6157 -59.8391,3.7081 -91.928,3.0562 -32.0889,-0.6519 -64.134,-3.0577 -91.928,-6.9778 -27.794,-3.9201 -51.2442,-9.3547 -67.2959,-15.6676 -16.0518,-6.3131 -24.6237,-13.4952 -24.632,-20.6848 -0.01,-7.1894 8.5947,-14.3699 24.632,-20.6847 16.0371,-6.3147 39.5103,-11.74463 67.2959,-15.66764 27.7856,-3.92301 59.8391,-6.32248 91.928,-6.97781 32.0889,-0.65532 64.1339,0.4434 91.928,3.05633 27.794,2.61288 51.2442,6.74028 67.2959,11.74612 16.0517,5.0058 24.6236,10.8809 24.6321,16.7632 0.01,5.8822 -8.5949,11.7556 -24.6321,16.7631 -16.0371,5.0076 -39.5103,9.1303 -67.2959,11.7462 -27.7857,2.6158 -59.8391,3.7081 -91.928,3.0562 -32.0889,-0.6519 -64.134,-3.0578 -91.928,-6.9778 -27.794,-3.92 -51.2442,-9.3547 -67.2959,-15.6676 -16.0518,-6.313 -24.6237,-13.4953 -24.632,-20.6848 -0.01,-7.18943 8.5947,-14.36997 24.632,-20.68467 16.0371,-6.3147 39.5103,-11.74465 67.2959,-15.66765 27.7856,-3.92302 59.8391,-6.32254 91.928,-6.97783 32.0889,-0.65531 64.1339,0.44341 91.928,3.05629 27.794,2.61287 51.2442,6.74033 67.2959,11.7461 16.0517,5.00584 24.6236,10.8809 24.6321,16.76319 0.01,5.88234 -8.5949,11.75567 -24.6321,16.76317 -16.0371,5.0075 -39.5103,9.1303 -67.2959,11.7461 -27.7857,2.6159 -59.8391,3.7083 -91.928,3.0563 -32.0889,-0.6518 -64.134,-3.0578 -91.928,-6.9778 -27.794,-3.92 -51.2442,-9.3547 -67.2959,-15.6677 -16.0518,-6.31295 -24.6237,-13.49522 -24.632,-20.68463 -0.01,-7.18955 8.5947,-14.37007 24.632,-20.68475 16.0371,-6.31469 39.5103,-11.74464 67.2959,-15.66765 27.7856,-3.92301 59.8391,-6.32253 91.928,-6.97783 32.0889,-0.6553 64.1339,0.44342 91.928,3.0563 27.794,2.61287 51.2442,6.74031 67.2959,11.74611 16.0517,5.0058 24.6236,10.88088 24.6321,16.76319 0.01,5.88228 -8.5949,11.75569 -24.6321,16.76319 -16.0371,5.00748 -39.5103,9.13023 -67.2959,11.74611 -27.7857,2.61581 -59.8391,3.70816 -91.928,3.05626 -32.0889,-0.65187 -64.134,-3.05773 -91.928,-6.97781 -27.794,-3.92007 -51.2442,-9.35468 -67.2959,-15.66765 -16.0518,-6.31297 -24.6237,-13.49523 -24.632,-20.68471 -0.01,-7.18948 8.5947,-14.37002 24.632,-20.68472 16.0371,-6.31469 39.5103,-11.74462 67.2959,-15.66764 27.7856,-3.92302 59.8391,-6.32254 91.928,-6.97784 32.0889,-0.6553 64.1339,0.44343 91.928,3.0563 27.794,2.61288 51.2442,6.74032 67.2959,11.74611 16.0517,5.00581 24.6236,10.88088 24.6321,16.76318 0.01,5.88231 -8.5949,11.75567 -24.6321,16.76318 -16.0371,5.00752 -39.5103,9.13028 -67.2959,11.74609 -27.7857,2.61587 -59.8391,3.70821 -91.928,3.05633 -32.0889,-0.65188 -64.134,-3.0578 -91.928,-6.97783 -27.794,-3.92006 -51.2442,-9.35467 -67.2959,-15.66765 -16.0518,-6.31298 -24.6237,-13.49523 -24.632,-20.68471 -0.01,-7.18949 8.5947,-14.37003 24.632,-20.68472 16.0371,-6.31469 39.5103,-11.74464 67.2959,-15.66765 27.7856,-3.92302 59.8391,-6.32253 91.928,-6.97783 32.0889,-0.6553 64.1339,0.44341 91.928,3.05629 27.794,2.61288 51.2442,6.74031 67.2959,11.74612 16.0517,5.00579 24.6236,10.88089 24.6321,16.76318 0.01,5.8823 -8.5949,11.75566 -24.6321,16.76318 -16.0371,5.00752 -39.5103,9.13028 -67.2959,11.74611 -27.7857,2.61584 -59.8391,3.70818 -91.928,3.0563 -32.0889,-0.65188 -64.134,-3.05778 -91.928,-6.97784 -27.794,-3.92003 -51.2442,-9.35466 -67.2959,-15.66764 -16.0518,-6.31298 -24.6237,-13.49524 -24.632,-20.68471 -0.01,-7.18948 8.5947,-14.37003 24.632,-20.68472 16.0371,-6.31469 39.5103,-11.74463 67.2959,-15.66765 27.7856,-3.92302 59.8391,-6.32254 91.928,-6.97783 32.0889,-0.6553 64.1339,0.44342 91.928,3.0563 27.794,2.61287 51.2442,6.74031 67.2959,11.74611 16.0517,5.00581 24.6236,10.88088 24.6321,16.76318 0.01,5.8823 -8.5949,11.75567 -24.6321,16.76318 -16.0371,5.00751 -39.5103,9.13028 -67.2959,11.74611 -27.7857,2.61585 -59.8391,3.70818 -91.928,3.05631 -32.0889,-0.65188 -64.134,-3.05779 -91.928,-6.97784 -27.794,-3.92006 -51.2442,-9.35467 -67.2959,-15.66765 -16.0518,-6.31298 -24.6237,-13.49523 -24.632,-20.68471 -0.01,-7.18948 8.5947,-14.37002 24.632,-20.68472 16.0371,-6.31468 39.5103,-11.74463 67.2959,-15.66765 27.7856,-3.92301 59.8391,-6.32252 91.928,-6.97783 32.0889,-0.6553 64.1339,0.44343 91.928,3.0563 27.794,2.61288 51.2442,6.74031 67.2959,11.74612 16.0517,5.00579 24.6236,10.88087 24.6321,16.76318 0.01,5.8823 -8.5949,11.75566 -24.6321,16.76318 -16.0371,5.00751 -39.5103,9.13027 -67.2959,11.74611 -27.7857,2.61584 -59.8391,3.70818 -91.928,3.0563 -32.0889,-0.65187 -64.134,-3.05778 -91.928,-6.97783 -27.794,-3.92006 -51.2442,-9.35468 -67.2959,-15.66765 -16.0518,-6.31299 -24.6237,-13.49524 -24.632,-20.68472 -0.01,-7.18948 8.5947,-14.37002 24.632,-20.68471 16.0371,-6.3147 39.5103,-11.74463 67.2959,-15.66765 27.7856,-3.92302 59.8391,-6.32253 91.928,-6.97784"
       title="500*(sin(t)) 200*(cos(t)+t/10)"
       id="path4067" />
  </g>
</svg>
