<?xml version="1.0" encoding="UTF-8" standalone="no"?>
<svg
   xmlns:dc="http://purl.org/dc/elements/1.1/"
   xmlns:cc="http://creativecommons.org/ns#"
   xmlns:rdf="http://www.w3.org/1999/02/22-rdf-syntax-ns#"
   xmlns:svg="http://www.w3.org/2000/svg"
   xmlns="http://www.w3.org/2000/svg"
   xmlns:sodipodi="http://sodipodi.sourceforge.net/DTD/sodipodi-0.dtd"
   xmlns:inkscape="http://www.inkscape.org/namespaces/inkscape"
   version="1.1"
   id="Layer_1"
   x="0px"
   y="0px"
   viewBox="-1115.08 -375 370 300.00001"
   enable-background="new -1115.08 -375 2670.0801 878.16"
   xml:space="preserve"
   inkscape:version="0.91 r13725"
   sodipodi:docname="White-Plate.svg"
   width="370"
   height="300"
   inkscape:export-filename="C:\git_repos\PolyDigit\UI\icons\reverb_plate.png"
   inkscape:export-xdpi="90"
   inkscape:export-ydpi="90"><metadata
     id="metadata4203"><rdf:RDF><cc:Work
         rdf:about=""><dc:format>image/svg+xml</dc:format><dc:type
           rdf:resource="http://purl.org/dc/dcmitype/StillImage" /><dc:title></dc:title></cc:Work></rdf:RDF></metadata><defs
     id="defs4201" /><sodipodi:namedview
     pagecolor="#a7a7a7"
     bordercolor="#666666"
     borderopacity="1"
     objecttolerance="10"
     gridtolerance="10"
     guidetolerance="10"
     inkscape:pageopacity="0"
     inkscape:pageshadow="2"
     inkscape:window-width="1398"
     inkscape:window-height="1084"
     id="namedview4199"
     showgrid="false"
     inkscape:zoom="1.2203185"
     inkscape:cx="126.3076"
     inkscape:cy="141.6397"
     inkscape:window-x="423"
     inkscape:window-y="147"
     inkscape:window-maximized="0"
     inkscape:current-layer="XMLID_1_" /><g
     id="g4168"
     transform="matrix(0.14405269,0,0,0.22977422,-961.59022,-238.12167)"><g
       id="XMLID_1_"><path
         d="m -1001.7477,168.6733 c -8.1473,-8.0892 -15.5963,-16.8185 -22.056,-26.3043 -1.9204,-2.8516 -15.6545,-24.1511 -13.1521,-25.6641 -0.1165,0.1164 2.5023,3.8409 3.0261,4.481 -0.058,-0.2328 -0.6984,-1.1639 -2.2114,-3.3171 23.9765,33.5787 58.3117,59.4756 93.2289,80.5424 88.3987,53.2487 189.6586,85.0234 289.0563,110.5712 103.1222,26.5371 208.1066,45.0432 313.5565,59.2429 211.8311,28.6321 426.6301,38.5253 640.2652,34.5099 212.1221,-3.9573 424.535,-20.1938 633.3981,-58.6027 103.5296,-19.0881 206.8262,-43.4719 305.9329,-79.3784 47.2546,-17.1094 93.9274,-36.9541 137.3411,-62.3854 39.2819,-23.0453 72.7441,-50.5135 101.1436,-86.0709 1.222,4.2483 -6.2852,14.1997 -8.3801,17.8078 -3.259,5.4704 -6.809,10.7079 -10.6498,15.7127 -7.74,10.1842 -16.7021,19.3209 -26.2461,27.8174 -20.1938,17.8078 -42.6572,32.9386 -66.0518,46.3235 -88.9225,50.9791 -189.1931,82.0555 -288.1251,107.0212 -103.4131,26.0715 -208.6304,44.4612 -314.3131,58.3117 -212.2384,27.7592 -427.3866,37.5942 -641.3709,32.764 -211.7147,-4.8302 -424.1859,-22.2306 -632.2343,-62.6182 -102.5402,-19.9028 -204.964,-44.9268 -302.6158,-82.4046 -46.2653,-17.7496 -92.065,-38.3507 -133.9075,-65.0624 -19.7281,-12.6287 -38.9908,-26.712 -55.6347,-43.2976 z"
         id="path4171"
         inkscape:connector-curvature="0"
         style="fill:#ffffff;stroke:#6affcd;stroke-opacity:0.78443116;stroke-width:1.0003686;stroke-miterlimit:4;stroke-dasharray:none;fill-opacity:0" /><path
         d="m -27.4412,-116.193 c 213.4023,-12.6866 428.8997,-9.7186 641.72,11.1735 105.5664,10.3006 211.1328,24.733 314.5459,48.7095 50.1061,11.6391 100.096,25.606 147.6998,45.2178 22.2888,9.1949 44.3448,19.8446 64.2477,33.4623 16.993,11.6391 35.1499,27.8756 39.9802,48.7095 -0.2328,-0.9893 -9.7186,-12.0464 -10.5916,-12.8612 0.1746,0.3492 2.5605,3.3171 9.1366,11.1735 C 1158.8127,45.7064 1131.9264,29.2371 1103.818,15.9686 1058.542,-5.2727 1010.5309,-19.9379 962.1124,-32.2753 911.1333,-45.2529 859.4558,-55.4952 807.4873,-63.9918 702.6775,-81.1012 596.8202,-91.6928 490.8464,-98.2107 276.3966,-111.421 60.0845,-109.7334 -153.958,-90.5289 c -104.6352,9.4276 -209.3287,22.8708 -312.1016,44.8686 -50.7463,10.8825 -101.3763,23.9183 -150.2604,41.6097 -44.0539,15.9455 -91.1921,36.3139 -122.7922,72.2786 2.9098,-17.9242 22.2888,-33.9861 36.1975,-43.8211 17.5168,-12.3374 36.7213,-22.347 56.3331,-30.9599 94.8002,-41.6097 200.1338,-61.2215 301.8593,-77.167 105.1009,-16.411 211.1328,-26.1879 317.2811,-32.473 z"
         id="path4173"
         inkscape:connector-curvature="0"
         style="fill:#ffffff;stroke:#6affcd;stroke-opacity:0.78443116;stroke-width:1.0003686;stroke-miterlimit:4;stroke-dasharray:none;fill-opacity:0" /><path
         d="m -396.807,-49.9667 c 208.9213,-37.5942 422.5564,-48.1276 634.5038,-48.1276 l 2.1532,0 c 91.2503,0 182.5588,3.6663 273.5763,9.9514 106.9631,7.3908 213.8098,18.9135 319.4343,37.5942 51.7939,9.1949 103.355,20.3102 154.0431,34.5098 48.0111,13.4431 97.1863,29.505 140.2507,55.2274 18.5643,11.1153 37.6525,25.024 48.1276,44.5194 3.2008,5.9359 5.1212,10.3588 2.0369,16.7021 -2.2697,4.7138 -5.1212,9.1367 -8.3219,13.2685 -6.5179,8.4383 -14.5488,15.4218 -23.0454,21.7651 -39.2819,29.2722 -88.4569,46.2071 -134.8386,60.465 -100.678,30.9017 -205.7206,48.2439 -310.0648,61.1633 -213.6351,26.3625 -430.1218,32.8222 -645.0954,24.733 -106.6721,-4.0155 -213.1696,-11.8719 -319.0269,-25.0822 -103.9951,-12.9194 -208.2812,-30.4944 -308.61,-61.2215 -46.2653,-14.1997 -96.2551,-31.1927 -135.0132,-61.0469 -9.4276,-7.2162 -18.3897,-15.6545 -25.0822,-25.5478 -2.968,-4.481 -5.5285,-9.3694 -7.2744,-14.4324 -1.5712,-4.481 2.4442,-9.835 4.6556,-13.5013 10.9989,-18.3897 28.9813,-31.0763 47.0219,-41.9007 42.5408,-25.5478 91.0757,-41.2605 138.5631,-54.7618 49.9316,-14.2578 100.9107,-25.0821 152.0063,-34.277 z"
         id="path4175"
         inkscape:connector-curvature="0"
         style="fill:#ffffff;stroke:#6affcd;stroke-opacity:0.78443116;stroke-width:1.0003686;stroke-miterlimit:4;stroke-dasharray:none;fill-opacity:0" /><path
         d="m 1259.3162,-112.9922 c 1.1638,-0.9311 -0.6403,-0.8729 -1.5132,-0.8729 0,-0.1164 -0.2328,-0.1164 -0.6982,0.0582 0.1163,0.0581 1.8039,1.1639 2.2114,0.8147 z M 216.3391,-131.091 c -135.246,0.1164 -270.5502,5.1212 -405.156,18.7971 -105.159,10.6497 -210.2016,25.315 -313.0909,49.8734 -49.3497,11.7555 -98.5829,25.8387 -145.3719,45.7415 -22.0561,9.3695 -43.5302,20.4848 -63.0838,34.4516 -17.7496,12.6866 -35.9647,29.3305 -40.8531,51.5029 -10.5916,47.953 44.8104,80.4842 80.5424,98.2337 45.567,22.5216 94.6256,37.5942 143.6843,50.2808 102.5984,26.4789 207.932,42.1334 313.2074,53.4815 212.2384,22.9872 427.1538,27.0026 640.3234,17.2258 106.2065,-4.8884 212.3548,-13.6177 317.6884,-28.1665 103.5295,-14.2579 207.9902,-32.9386 306.8058,-67.6812 43.6466,-15.3636 92.1233,-34.8008 123.9562,-69.7762 15.1307,-16.5275 22.4634,-37.7688 15.3053,-59.7666 -6.6924,-20.3102 -25.0239,-35.3828 -41.9589,-47.3128 -40.0966,-28.3411 -88.806,-45.276 -135.4787,-59.3593 -50.2226,-15.189 -101.4927,-26.7117 -153.0538,-36.4303 -104.9844,-19.7282 -211.4237,-31.8911 -317.9211,-39.922 -103.5877,-7.74 -207.641,-12.1628 -311.5779,-11.2899 4.0155,-0.0582 6.3433,-0.1164 7.3326,-0.1164 -3.6083,2e-4 -21.2997,0.1165 -21.2997,0.2329 z m 23.5691,520.5574 c -181.4531,1.3967 -363.6627,-8.4383 -543.6609,-31.1927 -105.6827,-13.3849 -210.9,-30.8435 -314.4877,-55.8676 -99.1066,-23.9765 -198.7371,-53.9471 -289.2891,-101.6673 -70.5327,-37.1868 -177.0303,-113.0154 -122.6176,-204.673 23.8019,-40.1548 62.2108,-67.5066 101.8419,-90.6684 42.4826,-24.8494 88.0496,-44.1121 134.1984,-60.9887 98.001,-35.8483 200.1338,-59.883 302.4994,-79.2039 103.8205,-19.5536 208.9213,-33.2878 314.1385,-42.4826 213.4023,-18.7389 427.8522,-22.7544 641.7783,-11.1735 211.1327,11.4645 423.8949,35.9065 628.859,89.388 97.1862,25.315 196.7584,56.5077 283.1202,108.9417 39.1655,23.8019 79.6694,53.4815 99.5142,96.1969 10.3005,22.1142 12.9775,45.6833 5.2375,69.0197 -6.9835,21.1831 -19.5537,39.922 -34.9172,55.9257 -33.2295,34.6844 -76.4105,59.3593 -119.1841,80.3096 -45.4506,22.2306 -92.938,39.922 -141.0073,55.4602 -101.2599,32.6476 -205.7205,55.1692 -310.5886,72.5114 -208.8049,34.5099 -420.9269,49.0005 -632.3506,50.1644 -0.5238,0 -1.5131,0 -2.9098,0 -0.0581,1e-4 -0.1163,1e-4 -0.1745,1e-4 z"
         id="path4177"
         inkscape:connector-curvature="0"
         style="fill:#ffffff;stroke:#6affcd;stroke-opacity:0.78443116;stroke-width:1.0003686;stroke-miterlimit:4;stroke-dasharray:none;fill-opacity:0" /><path
         d="m 1257.803,-113.8651 c 0.8729,0 2.677,-0.0582 1.5132,0.8729 -0.4075,0.3492 -2.0951,-0.7565 -2.2114,-0.8147 0.2328,0.1164 0.4655,0.0582 0.5819,0 0.058,0 0.058,0 0.058,0 l 0.058,-0.0582 z"
         id="path4179"
         inkscape:connector-curvature="0"
         style="stroke:#6affcd;stroke-opacity:0.78443116;stroke-width:1.0003686;stroke-miterlimit:4;stroke-dasharray:none" /><path
         d="m 1257.803,-113.8651 -0.058,0.0582 c 0,0 0,0 -0.058,0 -0.291,0 -0.4656,0 -0.5819,0 0.4654,-0.1746 0.6982,-0.1746 0.6982,-0.0582 z"
         id="path4181"
         inkscape:connector-curvature="0"
         style="stroke:#6affcd;stroke-opacity:0.78443116;stroke-width:1.0003686;stroke-miterlimit:4;stroke-dasharray:none" /><path
         d="m 1257.6866,-113.8069 c -0.1165,0.0582 -0.3491,0.1164 -0.5819,0 0.1164,0 0.2909,0 0.5819,0 z"
         id="path4183"
         inkscape:connector-curvature="0"
         style="stroke:#6affcd;stroke-opacity:0.78443116;stroke-width:1.0003686;stroke-miterlimit:4;stroke-dasharray:none" /><path
         d="m 1170.1609,58.2185 c 0.8729,0.8147 10.3588,11.8719 10.5916,12.8612 -0.2328,-0.291 -0.4656,-0.582 -0.6984,-0.8147 -0.2328,-0.291 -0.5238,-0.582 -0.7566,-0.8729 -6.5761,-7.8565 -8.9621,-10.8244 -9.1366,-11.1736 z"
         id="path4185"
         inkscape:connector-curvature="0"
         style="stroke:#6affcd;stroke-opacity:0.78443116;stroke-width:1.0003686;stroke-miterlimit:4;stroke-dasharray:none" /><path
         d="m 240.0828,389.4664 c 1.3967,0 2.386,0 2.9098,0 -1.3967,0 -4.772,0.0582 -8.2055,0.0582 1.5131,-0.0582 3.2007,-0.0582 5.1212,-0.0582 0.0581,0 0.1163,0 0.1745,0 z"
         id="path4187"
         inkscape:connector-curvature="0"
         style="stroke:#6affcd;stroke-opacity:0.78443116;stroke-width:1.0003686;stroke-miterlimit:4;stroke-dasharray:none" /><path
         d="m 220.1218,-131.091 c -1.2803,0 -2.5024,0 -3.7827,0 0,-0.1164 17.6914,-0.2328 21.2995,-0.2328 -0.9893,0 -3.3171,0.0582 -7.3326,0.1164 -0.9311,0 -1.804,0 -2.7352,0.0582 -2.095,0 -4.5974,0 -7.449,0.0582 z"
         id="path4189"
         inkscape:connector-curvature="0"
         style="stroke:#6affcd;stroke-opacity:0.78443116;stroke-width:1.0003686;stroke-miterlimit:4;stroke-dasharray:none" /><path
         d="m 174.1475,436.9538 c -5.4122,-1.1057 30.7271,0 0,0 l 0,0 z"
         id="path4191"
         inkscape:connector-curvature="0"
         style="stroke:#6affcd;stroke-opacity:0.78443116;stroke-width:1.0003686;stroke-miterlimit:4;stroke-dasharray:none" /><path
         d="m 614.2789,-105.0195 c -212.8203,-20.8921 -428.3177,-23.8601 -641.72,-11.1735 -106.1483,6.2851 -212.1802,16.0619 -317.281,32.473 -101.7255,15.9455 -207.0591,35.5574 -301.8593,77.167 -19.6118,8.6129 -38.8163,18.6225 -56.3331,30.9599 -13.9087,9.835 -33.2877,25.8969 -36.1975,43.8211 31.6,-35.9647 78.7383,-56.3331 122.7922,-72.2786 48.8841,-17.6914 99.514,-30.7271 150.2604,-41.6097 102.773,-21.9978 207.4664,-35.441 312.1016,-44.8686 214.0425,-19.2045 430.3546,-20.8921 644.8044,-7.6818 105.9738,6.5179 211.8311,17.1094 316.6409,34.2189 51.9684,8.4965 103.6459,18.7389 154.6251,31.7165 48.4185,12.3374 96.4296,27.0026 141.7056,48.2439 28.1084,13.2685 54.9946,29.7378 75.4794,53.4233 0.2328,0.291 0.5238,0.582 0.7566,0.8729 0.2328,0.2328 0.4656,0.5238 0.6984,0.8147 C 1175.9223,50.2456 1157.7654,34.0091 1140.7724,22.37 1120.8696,8.7523 1098.8135,-1.8975 1076.5247,-11.0923 1028.9209,-30.7041 978.9311,-44.671 928.8249,-56.3101 825.4116,-80.2864 719.8453,-94.7189 614.2789,-105.0195 Z m -803.0958,-7.2744 c 134.6058,-13.6759 269.91,-18.6807 405.156,-18.7971 1.2803,0 2.5024,0 3.7827,0 2.8516,-0.0582 5.354,-0.0582 7.449,-0.0582 0.9311,-0.0582 1.8041,-0.0582 2.7352,-0.0582 103.9369,-0.8729 207.9902,3.5499 311.5779,11.2899 106.4974,8.031 212.9368,20.1938 317.9211,39.922 51.5611,9.7186 102.8312,21.2413 153.0538,36.4303 46.6727,14.0833 95.3821,31.0181 135.4787,59.3593 16.9349,11.93 35.2665,27.0026 41.9589,47.3128 7.1581,21.9978 -0.1746,43.2391 -15.3053,59.7666 -31.8329,34.9754 -80.3096,54.4127 -123.9562,69.7762 -98.8156,34.7426 -203.2763,53.4233 -306.8058,67.6812 -105.3336,14.5488 -211.4819,23.2781 -317.6884,28.1665 -213.1696,9.7768 -428.085,5.7614 -640.3234,-17.2258 -105.2754,-11.3481 -210.6089,-27.0027 -313.2074,-53.4815 -49.0587,-12.6866 -98.1173,-27.7592 -143.6843,-50.2808 -35.732,-17.7496 -91.1339,-50.2808 -80.5424,-98.2337 4.8884,-22.1724 23.1035,-38.8163 40.8531,-51.5029 19.5536,-13.9669 41.0277,-25.0822 63.0838,-34.4516 46.789,-19.9028 96.0223,-33.9861 145.3719,-45.7415 102.8895,-24.5585 207.9321,-39.2237 313.0911,-49.8735 z M 55.9527,281.805 c 214.9736,8.0891 431.4603,1.6295 645.0954,-24.733 104.3442,-12.9194 209.3868,-30.2616 310.0648,-61.1633 46.3817,-14.2579 95.5567,-31.1927 134.8386,-60.465 8.4966,-6.3433 16.5275,-13.3267 23.0454,-21.7651 3.2007,-4.1319 6.0522,-8.5547 8.3219,-13.2685 3.0844,-6.3433 1.1639,-10.7661 -2.0369,-16.7021 C 1164.8068,64.2126 1145.7187,50.3039 1127.1543,39.1886 1084.0898,13.4663 1034.9147,-2.5957 986.9036,-16.0388 936.2155,-30.2385 884.6544,-41.3538 832.8605,-50.5486 727.2361,-69.2293 620.3894,-80.752 513.4263,-88.1428 422.4088,-94.4279 331.1003,-98.0942 239.85,-98.0942 l -2.1532,0 c -211.9474,0 -425.5826,10.5334 -634.5038,48.1276 -51.0955,9.1949 -102.0746,20.0192 -152.0063,34.2771 -47.4874,13.5013 -96.0223,29.2141 -138.5631,54.7618 -18.0406,10.8243 -36.0229,23.5109 -47.0219,41.9007 -2.2114,3.6663 -6.2269,9.0203 -4.6556,13.5013 1.7459,5.063 4.3065,9.9514 7.2744,14.4324 6.6925,9.8932 15.6546,18.3315 25.0822,25.5478 38.7581,29.8542 88.7479,46.8473 135.0132,61.0469 100.3288,30.7271 204.6149,48.3021 308.61,61.2215 105.8573,13.2103 212.3548,21.0666 319.0268,25.0821 z"
         id="path4193"
         inkscape:connector-curvature="0"
         style="stroke:#6affcd;stroke-opacity:0.78443116;fill:#6affcd;fill-opacity:1;stroke-width:0;stroke-miterlimit:4;stroke-dasharray:none" /><path
         d="m -1036.1411,117.8687 c 1.5131,2.1532 2.1532,3.0844 2.2114,3.3171 -0.5238,-0.6402 -3.1426,-4.3647 -3.0261,-4.481 0.2909,0.4074 0.5819,0.8148 0.8147,1.1639 z"
         id="path4195"
         inkscape:connector-curvature="0"
         style="stroke:#6affcd;stroke-opacity:0.78443116;stroke-width:1.0003686;stroke-miterlimit:4;stroke-dasharray:none" /><path
         d="m -901.5353,254.5696 c -42.6572,-21.5323 -84.2668,-47.1964 -117.1472,-82.3464 -15.5382,-16.5857 -28.9813,-35.5574 -35.9647,-57.3806 -7.3326,-23.0454 -5.2375,-49.5242 -4.7139,-73.4425 0.9312,-46.1489 34.6844,-84.0341 68.6124,-111.6769 37.4196,-30.4362 80.426,-53.2487 124.3634,-72.7442 47.1382,-20.8921 95.9642,-37.8852 145.3138,-52.6086 202.0543,-60.3486 413.187,-86.5365 622.8066,-102.2492 211.5401,-15.8291 424.0695,-13.9669 635.6677,0 105.3918,6.9834 210.9581,17.8078 315.2442,34.8008 104.6353,17.0512 208.514,37.4778 310.1812,67.7976 48.9423,14.6652 97.3026,31.6001 144.0917,52.3176 44.8104,19.8446 88.5732,43.1227 126.4003,74.5482 35.7902,29.6796 66.1681,67.5066 66.6337,115.8669 0.058,6.1105 -0.291,12.221 -1.222,18.2733 -0.3492,2.677 -4.3647,12.4538 -3.0844,14.607 1.1638,1.9204 2.7351,0.1164 2.2114,3.0844 -0.5238,2.968 -0.4075,6.0523 0.1746,9.0203 1.1057,5.2376 -2.1532,13.3267 -3.2008,18.5643 -4.7137,23.2781 -18.6807,42.3662 -34.4517,59.6502 -31.9492,34.9754 -72.7441,60.5814 -114.703,81.939 -45.3341,23.1035 -92.8215,41.6097 -141.0656,57.5552 -99.4558,32.8222 -201.9378,55.5184 -305.1182,73.3261 -104.9844,18.0988 -210.7835,30.1452 -316.9318,39.2237 -52.4922,4.4229 -105.159,7.6818 -157.7676,9.835 -26.0715,0.9893 -52.2012,1.8623 -78.3309,2.5606 -26.1879,0.7565 -52.5504,0.1746 -78.6801,1.3385 -31.0181,1.3967 -62.5018,0.5237 -93.6363,0.5237 30.7271,0 -5.4122,-1.1057 0,0 -11.2317,-2.3278 -24.1511,-0.5819 -35.5574,-0.7565 -13.9087,-0.2328 -27.8174,-0.5238 -41.7261,-0.9311 -26.7699,-0.7565 -53.5397,-1.4549 -80.3096,-2.677 -52.6668,-2.4442 -105.3336,-5.6449 -157.884,-9.8932 -104.868,-8.4383 -209.6196,-20.4266 -313.3238,-38.4089 -103.8205,-17.9824 -207.2336,-40.2712 -307.3878,-73.3843 -47.6036,-15.7127 -94.6837,-33.695 -139.4941,-56.333 z M -1030.147,-3.9341 c -54.4127,91.6577 52.0848,167.4862 122.6176,204.673 90.552,47.7202 190.1824,77.6908 289.2891,101.6673 103.5877,25.024 208.8049,42.4826 314.4877,55.8676 179.9982,22.7544 362.2078,32.5894 543.6609,31.1927 -1.9204,0 -3.6081,0 -5.1212,0.0582 3.4335,0 6.8089,-0.0582 8.2055,-0.0582 211.4237,-1.1639 423.5457,-15.6545 632.3506,-50.1644 104.868,-17.3422 209.3287,-39.8638 310.5886,-72.5114 48.0693,-15.5382 95.5568,-33.2296 141.0073,-55.4602 42.7736,-20.9503 85.9546,-45.6252 119.1841,-80.3096 15.3635,-16.0037 27.9337,-34.7426 34.9172,-55.9257 7.74,-23.3363 5.063,-46.9054 -5.2375,-69.0197 -19.8447,-42.7154 -60.3486,-72.395 -99.5142,-96.1969 -86.3618,-52.434 -185.9341,-83.6267 -283.1202,-108.9417 -204.9641,-53.4815 -417.7263,-77.9236 -628.859,-89.388 -213.9261,-11.5809 -428.3759,-7.5654 -641.7783,11.1735 -105.2172,9.1949 -210.318,22.929 -314.1385,42.4826 -102.3656,19.3209 -204.4984,43.3555 -302.4994,79.2039 -46.1489,16.8766 -91.7158,36.1393 -134.1984,60.9887 -39.6311,23.1617 -78.04,50.5135 -101.8419,90.6683 z m 6.3433,146.3031 c 6.4597,9.4859 13.9087,18.2151 22.056,26.3043 16.6439,16.5857 35.9066,30.6689 55.6348,43.2973 41.8425,26.7117 87.6422,47.3128 133.9075,65.0624 97.6518,37.4778 200.0756,62.5018 302.6158,82.4046 208.0484,40.3876 420.5196,57.788 632.2343,62.6182 213.9843,4.8302 429.1325,-5.0048 641.3709,-32.764 105.6827,-13.8505 210.9,-32.2402 314.3131,-58.3117 98.932,-24.9658 199.2026,-56.0421 288.1251,-107.0212 23.3945,-13.3849 45.8579,-28.5157 66.0518,-46.3235 9.5439,-8.4965 18.5061,-17.6332 26.2461,-27.8174 3.8408,-5.0048 7.3907,-10.2424 10.6498,-15.7127 2.095,-3.6081 9.6022,-13.5595 8.3801,-17.8078 -28.3994,35.5574 -61.8617,63.0256 -101.1436,86.0709 -43.4137,25.4314 -90.0864,45.276 -137.3411,62.3854 -99.1067,35.9065 -202.4033,60.2904 -305.9329,79.3784 -208.8631,38.4089 -421.2761,54.6454 -633.3981,58.6027 -213.6351,4.0155 -428.4341,-5.8777 -640.2652,-34.5099 -105.45,-14.1996 -210.4343,-32.7058 -313.5565,-59.2429 -99.3976,-25.5478 -200.6575,-57.3224 -289.0563,-110.5712 -34.9172,-21.0667 -69.2524,-46.9637 -93.2289,-80.5424 -0.2328,-0.3492 -0.5238,-0.7565 -0.8147,-1.1639 -2.5026,1.5133 11.2316,22.8128 13.152,25.6644 z"
         id="path4197"
         inkscape:connector-curvature="0"
         style="stroke:#6affcd;stroke-opacity:0.78443116;fill:#6affcd;fill-opacity:1;stroke-width:0;stroke-miterlimit:4;stroke-dasharray:none" /></g></g></svg>